<svg width="134" height="18" viewBox="0 0 134 18" fill="none" xmlns="http://www.w3.org/2000/svg">
<rect width="134" height="18" fill="#1E1E1E"/>
<path d="M1.584 9.144H10.464V10.68H1.584V9.144ZM1.776 17.808H0V1.008H11.52V2.544H1.776V17.808Z" fill="white"/>
<path d="M14.8275 17.808V5.208H16.5315V17.808H14.8275ZM15.6915 2.424C15.3395 2.424 15.0435 2.304 14.8035 2.064C14.5635 1.824 14.4435 1.536 14.4435 1.2C14.4435 0.864 14.5635 0.584 14.8035 0.36C15.0435 0.12 15.3395 0 15.6915 0C16.0435 0 16.3395 0.112 16.5795 0.336C16.8195 0.56 16.9395 0.84 16.9395 1.176C16.9395 1.528 16.8195 1.824 16.5795 2.064C16.3555 2.304 16.0595 2.424 15.6915 2.424Z" fill="white"/>
<path d="M25.2568 17.928C24.0728 17.928 23.1608 17.608 22.5208 16.968C21.8808 16.328 21.5608 15.424 21.5608 14.256V2.424H23.2648V14.16C23.2648 14.896 23.4488 15.464 23.8168 15.864C24.2008 16.264 24.7448 16.464 25.4488 16.464C26.2008 16.464 26.8248 16.248 27.3208 15.816L27.9208 17.04C27.5848 17.344 27.1768 17.568 26.6968 17.712C26.2328 17.856 25.7528 17.928 25.2568 17.928ZM19.3048 6.624V5.208H27.1048V6.624H19.3048Z" fill="white"/>
<path d="M37.4548 5.088C38.4788 5.088 39.3748 5.288 40.1428 5.688C40.9268 6.072 41.5348 6.664 41.9668 7.464C42.4148 8.264 42.6388 9.272 42.6388 10.488V17.808H40.9348V10.656C40.9348 9.328 40.5988 8.328 39.9268 7.656C39.2708 6.968 38.3428 6.624 37.1428 6.624C36.2468 6.624 35.4628 6.808 34.7908 7.176C34.1348 7.528 33.6228 8.048 33.2548 8.736C32.9028 9.408 32.7268 10.224 32.7268 11.184V17.808H31.0228V5.208H32.6548V8.664L32.3908 8.016C32.7908 7.104 33.4308 6.392 34.3108 5.88C35.1908 5.352 36.2388 5.088 37.4548 5.088Z" fill="white"/>
<path d="M52.5936 17.928C51.2816 17.928 50.1296 17.656 49.1376 17.112C48.1456 16.552 47.3696 15.792 46.8096 14.832C46.2496 13.856 45.9696 12.744 45.9696 11.496C45.9696 10.248 46.2336 9.144 46.7616 8.184C47.3056 7.224 48.0416 6.472 48.9696 5.928C49.9136 5.368 50.9696 5.088 52.1376 5.088C53.3216 5.088 54.3696 5.36 55.2816 5.904C56.2096 6.432 56.9376 7.184 57.4656 8.16C57.9936 9.12 58.2576 10.232 58.2576 11.496C58.2576 11.576 58.2496 11.664 58.2336 11.76C58.2336 11.84 58.2336 11.928 58.2336 12.024H47.2656V10.752H57.3216L56.6496 11.256C56.6496 10.344 56.4496 9.536 56.0496 8.832C55.6656 8.112 55.1376 7.552 54.4656 7.152C53.7936 6.752 53.0176 6.552 52.1376 6.552C51.2736 6.552 50.4976 6.752 49.8096 7.152C49.1216 7.552 48.5856 8.112 48.2016 8.832C47.8176 9.552 47.6256 10.376 47.6256 11.304V11.568C47.6256 12.528 47.8336 13.376 48.2496 14.112C48.6816 14.832 49.2736 15.4 50.0256 15.816C50.7936 16.216 51.6656 16.416 52.6416 16.416C53.4096 16.416 54.1216 16.28 54.7776 16.008C55.4496 15.736 56.0256 15.32 56.5056 14.76L57.4656 15.864C56.9056 16.536 56.2016 17.048 55.3536 17.4C54.5216 17.752 53.6016 17.928 52.5936 17.928Z" fill="white"/>
<path d="M65.1099 17.928C64.0699 17.928 63.0859 17.784 62.1579 17.496C61.2299 17.192 60.5019 16.816 59.9739 16.368L60.7419 15.024C61.2539 15.408 61.9099 15.744 62.7099 16.032C63.5099 16.304 64.3499 16.44 65.2299 16.44C66.4299 16.44 67.2939 16.256 67.8219 15.888C68.3499 15.504 68.6139 15 68.6139 14.376C68.6139 13.912 68.4619 13.552 68.1579 13.296C67.8699 13.024 67.4859 12.824 67.0059 12.696C66.5259 12.552 65.9899 12.432 65.3979 12.336C64.8059 12.24 64.2139 12.128 63.6219 12C63.0459 11.872 62.5179 11.688 62.0379 11.448C61.5579 11.192 61.1659 10.848 60.8619 10.416C60.5739 9.984 60.4299 9.408 60.4299 8.688C60.4299 8 60.6219 7.384 61.0059 6.84C61.3899 6.296 61.9499 5.872 62.6859 5.568C63.4379 5.248 64.3499 5.088 65.4219 5.088C66.2379 5.088 67.0539 5.2 67.8699 5.424C68.6859 5.632 69.3579 5.912 69.8859 6.264L69.1419 7.632C68.5819 7.248 67.9819 6.976 67.3419 6.816C66.7019 6.64 66.0619 6.552 65.4219 6.552C64.2859 6.552 63.4459 6.752 62.9019 7.152C62.3739 7.536 62.1099 8.032 62.1099 8.64C62.1099 9.12 62.2539 9.496 62.5419 9.768C62.8459 10.04 63.2379 10.256 63.7179 10.416C64.2139 10.56 64.7499 10.68 65.3259 10.776C65.9179 10.872 66.5019 10.992 67.0779 11.136C67.6699 11.264 68.2059 11.448 68.6859 11.688C69.1819 11.912 69.5739 12.24 69.8619 12.672C70.1659 13.088 70.3179 13.64 70.3179 14.328C70.3179 15.064 70.1099 15.704 69.6939 16.248C69.2939 16.776 68.7019 17.192 67.9179 17.496C67.1499 17.784 66.2139 17.928 65.1099 17.928Z" fill="white"/>
<path d="M76.8287 17.928C75.7887 17.928 74.8047 17.784 73.8767 17.496C72.9487 17.192 72.2207 16.816 71.6927 16.368L72.4607 15.024C72.9727 15.408 73.6287 15.744 74.4287 16.032C75.2287 16.304 76.0687 16.44 76.9487 16.44C78.1487 16.44 79.0127 16.256 79.5407 15.888C80.0687 15.504 80.3327 15 80.3327 14.376C80.3327 13.912 80.1807 13.552 79.8767 13.296C79.5887 13.024 79.2047 12.824 78.7247 12.696C78.2447 12.552 77.7087 12.432 77.1167 12.336C76.5247 12.24 75.9327 12.128 75.3407 12C74.7647 11.872 74.2367 11.688 73.7567 11.448C73.2767 11.192 72.8847 10.848 72.5807 10.416C72.2927 9.984 72.1487 9.408 72.1487 8.688C72.1487 8 72.3407 7.384 72.7247 6.84C73.1087 6.296 73.6687 5.872 74.4047 5.568C75.1567 5.248 76.0687 5.088 77.1407 5.088C77.9567 5.088 78.7727 5.2 79.5887 5.424C80.4047 5.632 81.0767 5.912 81.6047 6.264L80.8607 7.632C80.3007 7.248 79.7007 6.976 79.0607 6.816C78.4207 6.64 77.7807 6.552 77.1407 6.552C76.0047 6.552 75.1647 6.752 74.6207 7.152C74.0927 7.536 73.8287 8.032 73.8287 8.64C73.8287 9.12 73.9727 9.496 74.2607 9.768C74.5647 10.04 74.9567 10.256 75.4367 10.416C75.9327 10.56 76.4687 10.68 77.0447 10.776C77.6367 10.872 78.2207 10.992 78.7967 11.136C79.3887 11.264 79.9247 11.448 80.4047 11.688C80.9007 11.912 81.2927 12.24 81.5807 12.672C81.8847 13.088 82.0367 13.64 82.0367 14.328C82.0367 15.064 81.8287 15.704 81.4127 16.248C81.0127 16.776 80.4207 17.192 79.6367 17.496C78.8687 17.784 77.9327 17.928 76.8287 17.928Z" fill="white"/>
<path d="M97.8114 1.008H99.5634V17.808H97.8114V1.008ZM87.2994 17.808H85.5234V1.008H87.2994V17.808ZM97.9794 10.056H87.1074V8.496H97.9794V10.056Z" fill="white"/>
<path d="M109.895 17.928C108.823 17.928 107.887 17.728 107.087 17.328C106.287 16.928 105.663 16.328 105.215 15.528C104.783 14.728 104.567 13.728 104.567 12.528V5.208H106.271V12.336C106.271 13.68 106.599 14.696 107.255 15.384C107.927 16.056 108.863 16.392 110.063 16.392C110.943 16.392 111.703 16.216 112.343 15.864C112.999 15.496 113.495 14.968 113.831 14.28C114.183 13.592 114.359 12.768 114.359 11.808V5.208H116.063V17.808H114.431V14.352L114.695 14.976C114.295 15.904 113.671 16.632 112.823 17.16C111.991 17.672 111.015 17.928 109.895 17.928Z" fill="white"/>
<path d="M127.316 17.928C126.212 17.928 125.22 17.68 124.34 17.184C123.46 16.672 122.764 15.936 122.252 14.976C121.74 14.016 121.484 12.856 121.484 11.496C121.484 10.12 121.74 8.96 122.252 8.016C122.78 7.056 123.484 6.328 124.364 5.832C125.244 5.336 126.228 5.088 127.316 5.088C128.516 5.088 129.588 5.36 130.532 5.904C131.492 6.432 132.244 7.176 132.788 8.136C133.332 9.096 133.604 10.216 133.604 11.496C133.604 12.76 133.332 13.88 132.788 14.856C132.244 15.816 131.492 16.568 130.532 17.112C129.588 17.656 128.516 17.928 127.316 17.928ZM120.812 17.808V0H122.516V8.928L122.276 11.472L122.444 14.016V17.808H120.812ZM127.196 16.416C128.092 16.416 128.892 16.216 129.596 15.816C130.3 15.4 130.86 14.824 131.276 14.088C131.692 13.336 131.9 12.472 131.9 11.496C131.9 10.504 131.692 9.64 131.276 8.904C130.86 8.168 130.3 7.6 129.596 7.2C128.892 6.784 128.092 6.576 127.196 6.576C126.3 6.576 125.492 6.784 124.772 7.2C124.068 7.6 123.508 8.168 123.092 8.904C122.692 9.64 122.492 10.504 122.492 11.496C122.492 12.472 122.692 13.336 123.092 14.088C123.508 14.824 124.068 15.4 124.772 15.816C125.492 16.216 126.3 16.416 127.196 16.416Z" fill="white"/>
</svg>
