<svg width="184" height="26" viewBox="0 0 184 26" fill="none" xmlns="http://www.w3.org/2000/svg">
<path d="M3.816 12.904H14.984V16.424H3.816V12.904ZM4.168 25H0.00800323V2.6H16.36V6.088H4.168V25Z" fill="white"/>
<path d="M19.999 25V7.912H23.999V25H19.999ZM22.015 5.096C21.2683 5.096 20.6497 4.86133 20.159 4.392C19.6897 3.92266 19.455 3.35733 19.455 2.696C19.455 2.01333 19.6897 1.448 20.159 0.999996C20.6497 0.530664 21.2683 0.295998 22.015 0.295998C22.7617 0.295998 23.3697 0.519997 23.839 0.967997C24.3297 1.39466 24.575 1.93866 24.575 2.6C24.575 3.304 24.3403 3.90133 23.871 4.392C23.4017 4.86133 22.783 5.096 22.015 5.096Z" fill="white"/>
<path d="M35.681 25.224C33.8037 25.224 32.353 24.744 31.329 23.784C30.305 22.8027 29.793 21.3627 29.793 19.464V4.136H33.793V19.368C33.793 20.1787 33.9957 20.808 34.401 21.256C34.8277 21.704 35.4143 21.928 36.161 21.928C37.057 21.928 37.8037 21.6933 38.401 21.224L39.521 24.072C39.0517 24.456 38.4757 24.744 37.793 24.936C37.1103 25.128 36.4063 25.224 35.681 25.224ZM26.977 11.24V8.04H38.369V11.24H26.977Z" fill="white"/>
<path d="M52.5075 7.72C53.8728 7.72 55.0888 7.98666 56.1555 8.52C57.2435 9.05333 58.0968 9.87466 58.7155 10.984C59.3342 12.072 59.6435 13.48 59.6435 15.208V25H55.6435V15.72C55.6435 14.2053 55.2808 13.0747 54.5555 12.328C53.8515 11.5813 52.8595 11.208 51.5795 11.208C50.6408 11.208 49.8088 11.4 49.0835 11.784C48.3582 12.168 47.7928 12.744 47.3875 13.512C47.0035 14.2587 46.8115 15.208 46.8115 16.36V25H42.8115V7.912H46.6195V12.52L45.9475 11.112C46.5448 10.024 47.4088 9.192 48.5395 8.616C49.6915 8.01866 51.0142 7.72 52.5075 7.72Z" fill="white"/>
<path d="M72.781 25.224C70.8823 25.224 69.2183 24.8507 67.789 24.104C66.381 23.336 65.2823 22.2907 64.493 20.968C63.725 19.6453 63.341 18.1413 63.341 16.456C63.341 14.7493 63.7143 13.2453 64.461 11.944C65.229 10.6213 66.2743 9.58666 67.597 8.84C68.941 8.09333 70.4663 7.72 72.173 7.72C73.837 7.72 75.3197 8.08266 76.621 8.808C77.9223 9.53333 78.9463 10.5573 79.693 11.88C80.4397 13.2027 80.813 14.76 80.813 16.552C80.813 16.7227 80.8023 16.9147 80.781 17.128C80.781 17.3413 80.7703 17.544 80.749 17.736H66.509V15.08H78.637L77.069 15.912C77.0903 14.9307 76.8877 14.0667 76.461 13.32C76.0343 12.5733 75.4477 11.9867 74.701 11.56C73.9757 11.1333 73.133 10.92 72.173 10.92C71.1917 10.92 70.3277 11.1333 69.581 11.56C68.8557 11.9867 68.2797 12.584 67.853 13.352C67.4477 14.0987 67.245 14.984 67.245 16.008V16.648C67.245 17.672 67.4797 18.5787 67.949 19.368C68.4183 20.1573 69.0797 20.7653 69.933 21.192C70.7863 21.6187 71.7677 21.832 72.877 21.832C73.837 21.832 74.701 21.6827 75.469 21.384C76.237 21.0853 76.9197 20.616 77.517 19.976L79.661 22.44C78.893 23.336 77.9223 24.0293 76.749 24.52C75.597 24.9893 74.2743 25.224 72.781 25.224Z" fill="white"/>
<path d="M89.9353 25.224C88.5059 25.224 87.1299 25.0427 85.8073 24.68C84.5059 24.296 83.4713 23.8373 82.7033 23.304L84.2393 20.264C85.0073 20.7547 85.9246 21.16 86.9913 21.48C88.0579 21.8 89.1246 21.96 90.1913 21.96C91.4499 21.96 92.3566 21.7893 92.9113 21.448C93.4873 21.1067 93.7753 20.648 93.7753 20.072C93.7753 19.6027 93.5833 19.2507 93.1993 19.016C92.8153 18.76 92.3139 18.568 91.6953 18.44C91.0766 18.312 90.3833 18.1947 89.6153 18.088C88.8686 17.9813 88.1113 17.8427 87.3433 17.672C86.5966 17.48 85.9139 17.2133 85.2952 16.872C84.6766 16.5093 84.1753 16.0293 83.7913 15.432C83.4073 14.8347 83.2153 14.0453 83.2153 13.064C83.2153 11.976 83.5246 11.0373 84.1432 10.248C84.7619 9.43733 85.6259 8.81866 86.7353 8.392C87.8659 7.944 89.1993 7.72 90.7353 7.72C91.8873 7.72 93.0499 7.848 94.2233 8.104C95.3966 8.36 96.3673 8.72266 97.1353 9.192L95.5993 12.232C94.7886 11.7413 93.9673 11.4107 93.1353 11.24C92.3246 11.048 91.5139 10.952 90.7033 10.952C89.4873 10.952 88.5806 11.1333 87.9833 11.496C87.4073 11.8587 87.1193 12.3173 87.1193 12.872C87.1193 13.384 87.3113 13.768 87.6953 14.024C88.0793 14.28 88.5806 14.4827 89.1993 14.632C89.8179 14.7813 90.5006 14.9093 91.2473 15.016C92.0153 15.1013 92.7726 15.24 93.5193 15.432C94.2659 15.624 94.9486 15.8907 95.5673 16.232C96.2073 16.552 96.7193 17.0107 97.1033 17.608C97.4873 18.2053 97.6793 18.984 97.6793 19.944C97.6793 21.0107 97.3593 21.9387 96.7193 22.728C96.1006 23.5173 95.2153 24.136 94.0633 24.584C92.9113 25.0107 91.5353 25.224 89.9353 25.224Z" fill="white"/>
<path d="M106.404 25.224C104.975 25.224 103.599 25.0427 102.276 24.68C100.975 24.296 99.94 23.8373 99.172 23.304L100.708 20.264C101.476 20.7547 102.393 21.16 103.46 21.48C104.527 21.8 105.593 21.96 106.66 21.96C107.919 21.96 108.825 21.7893 109.38 21.448C109.956 21.1067 110.244 20.648 110.244 20.072C110.244 19.6027 110.052 19.2507 109.668 19.016C109.284 18.76 108.783 18.568 108.164 18.44C107.545 18.312 106.852 18.1947 106.084 18.088C105.337 17.9813 104.58 17.8427 103.812 17.672C103.065 17.48 102.383 17.2133 101.764 16.872C101.145 16.5093 100.644 16.0293 100.26 15.432C99.876 14.8347 99.684 14.0453 99.684 13.064C99.684 11.976 99.9933 11.0373 100.612 10.248C101.231 9.43733 102.095 8.81866 103.204 8.392C104.335 7.944 105.668 7.72 107.204 7.72C108.356 7.72 109.519 7.848 110.692 8.104C111.865 8.36 112.836 8.72266 113.604 9.192L112.068 12.232C111.257 11.7413 110.436 11.4107 109.604 11.24C108.793 11.048 107.983 10.952 107.172 10.952C105.956 10.952 105.049 11.1333 104.452 11.496C103.876 11.8587 103.588 12.3173 103.588 12.872C103.588 13.384 103.78 13.768 104.164 14.024C104.548 14.28 105.049 14.4827 105.668 14.632C106.287 14.7813 106.969 14.9093 107.716 15.016C108.484 15.1013 109.241 15.24 109.988 15.432C110.735 15.624 111.417 15.8907 112.036 16.232C112.676 16.552 113.188 17.0107 113.572 17.608C113.956 18.2053 114.148 18.984 114.148 19.944C114.148 21.0107 113.828 21.9387 113.188 22.728C112.569 23.5173 111.684 24.136 110.532 24.584C109.38 25.0107 108.004 25.224 106.404 25.224Z" fill="white"/>
<path d="M133.721 2.6H137.881V25H133.721V2.6ZM122.137 25H117.977V2.6H122.137V25ZM134.041 15.4H121.785V11.848H134.041V15.4Z" fill="white"/>
<path d="M150.731 25.224C149.28 25.224 148 24.9573 146.891 24.424C145.782 23.8693 144.918 23.0373 144.299 21.928C143.68 20.7973 143.371 19.3787 143.371 17.672V7.912H147.371V17.128C147.371 18.664 147.712 19.816 148.395 20.584C149.099 21.3307 150.091 21.704 151.371 21.704C152.31 21.704 153.12 21.512 153.803 21.128C154.507 20.744 155.051 20.168 155.435 19.4C155.84 18.632 156.043 17.6827 156.043 16.552V7.912H160.043V25H156.235V20.392L156.907 21.8C156.331 22.9093 155.488 23.7627 154.379 24.36C153.27 24.936 152.054 25.224 150.731 25.224Z" fill="white"/>
<path d="M174.752 25.224C173.302 25.224 172.011 24.904 170.88 24.264C169.75 23.624 168.854 22.664 168.192 21.384C167.552 20.0827 167.232 18.44 167.232 16.456C167.232 14.4507 167.563 12.808 168.224 11.528C168.907 10.248 169.814 9.29866 170.944 8.68C172.096 8.04 173.366 7.72 174.752 7.72C176.438 7.72 177.92 8.08266 179.2 8.808C180.502 9.53333 181.526 10.5467 182.272 11.848C183.04 13.1493 183.424 14.6853 183.424 16.456C183.424 18.2267 183.04 19.7627 182.272 21.064C181.526 22.3653 180.502 23.3893 179.2 24.136C177.92 24.8613 176.438 25.224 174.752 25.224ZM165.28 25V1.256H169.28V11.88L168.96 16.424L169.088 20.968V25H165.28ZM174.304 21.8C175.264 21.8 176.118 21.5867 176.864 21.16C177.632 20.7333 178.24 20.1147 178.688 19.304C179.136 18.4933 179.36 17.544 179.36 16.456C179.36 15.3467 179.136 14.3973 178.688 13.608C178.24 12.7973 177.632 12.1787 176.864 11.752C176.118 11.3253 175.264 11.112 174.304 11.112C173.344 11.112 172.48 11.3253 171.712 11.752C170.944 12.1787 170.336 12.7973 169.888 13.608C169.44 14.3973 169.216 15.3467 169.216 16.456C169.216 17.544 169.44 18.4933 169.888 19.304C170.336 20.1147 170.944 20.7333 171.712 21.16C172.48 21.5867 173.344 21.8 174.304 21.8Z" fill="white"/>
</svg>
